# File created by Blade
# Date/Time:  Tue Jan 27 18:55:50 2015
# Frame Rate: 120.000 fps
#------------------------------------------------------
:FULLY-SPECIFIED
:DEGREES
2444
root -0.462037 32.578334 -5.942922 25.987853 -30.229321 -25.607752
Spine 7.491194 13.982728 5.920420
Head -9.263477 26.587499 0.443571
LeftShoulder -17.980832 20.016546 15.319771
LeftArm -10.740979 -49.592451 -68.982240
LeftForeArm -11.405482 -0.000000 105.436752
LeftHand -15.349864 -0.000000 43.656310
LeftHandThumb1 -26.253704 0.000000 33.147579
RightShoulder 4.660235 16.699154 -3.307060
RightArm 29.187191 -52.614154 78.108413
RightForeArm -22.237784 -0.000000 26.599808
RightHand -14.694899 -0.000000 9.818322
RightHandThumb1 -24.326973 -0.000000 -32.862282
LeftUpLeg -22.481651 20.771553 5.919130
LeftLeg 20.347834 -0.000000 -0.000000
LeftFoot -41.506490 37.847545 -34.815546
LeftToeBase 9.547551 -0.000000 -0.000000
RightUpLeg -42.409892 -52.916537 -2.090468
RightLeg 82.430613 -0.000000 -0.000000
RightFoot -27.897189 -22.974410 23.775117
RightToeBase 10.766453 -0.000000 -0.000000
2445
root -0.463695 32.578813 -5.944661 26.048704 -30.285086 -25.667712
Spine 7.494472 13.966473 5.906650
Head -9.242621 26.714749 0.465938
LeftShoulder -18.023506 20.061322 15.289120
LeftArm -10.597586 -49.683026 -68.981625
LeftForeArm -11.376454 0.000000 105.330061
LeftHand -15.457517 -0.000000 43.833428
LeftHandThumb1 -26.253704 0.000000 33.147579
RightShoulder 4.681160 16.700704 -3.272003
RightArm 29.199216 -52.575541 78.051465
RightForeArm -22.408162 0.000000 26.526114
RightHand -14.668481 0.000000 9.839290
RightHandThumb1 -24.326973 -0.000000 -32.862282
LeftUpLeg -22.524555 20.836490 5.945224
LeftLeg 20.403216 -0.000000 -0.000000
LeftFoot -41.421404 37.833330 -34.742908
LeftToeBase 9.902421 -0.000000 -0.000000
RightUpLeg -42.349204 -52.740455 -2.155748
RightLeg 82.000494 -0.000000 -0.000000
RightFoot -27.941348 -23.071862 23.851517
RightToeBase 10.887351 -0.000000 -0.000000
2446
root -0.464892 32.577690 -5.944105 26.106053 -30.362435 -25.723827
Spine 7.492577 13.997720 5.887135
Head -9.211987 26.802318 0.537871
LeftShoulder -18.034986 20.076491 15.294385
LeftArm -10.562698 -49.694471 -68.899902
LeftForeArm -11.606583 -0.000000 105.212892
LeftHand -15.329276 -0.000000 44.100563
LeftHandThumb1 -26.253704 0.000000 33.147579
RightShoulder 4.677137 16.676330 -3.245264
RightArm 29.176584 -52.498670 78.029417
RightForeArm -22.571959 -0.000000 26.488254
RightHand -14.684176 -0.000000 9.956663
RightHandThumb1 -24.326973 -0.000000 -32.862282
LeftUpLeg -22.563354 20.906431 5.956013
LeftLeg 20.500514 -0.000000 -0.000000
LeftFoot -41.804283 37.659924 -35.192995
LeftToeBase 9.747511 -0.000000 -0.000000
RightUpLeg -42.296565 -52.563186 -2.234744
RightLeg 81.574665 -0.000000 -0.000000
RightFoot -27.931988 -23.208865 23.916199
RightToeBase 11.042063 -0.000000 -0.000000
2447
root -0.466072 32.576192 -5.943744 26.166152 -30.437754 -25.774937
Spine 7.478517 14.027002 5.859502
Head -9.167684 26.906555 0.611372
LeftShoulder -18.049080 20.081918 15.311982
LeftArm -10.510188 -49.791180 -68.872608
LeftForeArm -11.648509 -0.000000 105.074783
LeftHand -15.252061 0.000000 44.182464
LeftHandThumb1 -26.253704 0.000000 33.147579
RightShoulder 4.669393 16.666330 -3.217013
RightArm 29.092146 -52.379568 78.078691
RightForeArm -22.682067 -0.000000 26.415033
RightHand -14.731993 -0.000000 10.017037
RightHandThumb1 -24.326973 -0.000000 -32.862282
LeftUpLeg -22.603433 20.922960 5.992565
LeftLeg 20.591102 -0.000000 -0.000000
LeftFoot -41.843844 37.658836 -35.231856
LeftToeBase 9.720151 -0.000000 -0.000000
RightUpLeg -42.248905 -52.378351 -2.310872
RightLeg 81.125062 -0.000000 -0.000000
RightFoot -27.937111 -23.423116 23.875107
RightToeBase 11.131499 -0.000000 -0.000000
2448
root -0.468769 32.574711 -5.939628 26.208778 -30.538362 -25.820411
Spine 7.471147 14.090485 5.810583
Head -9.136314 26.996041 0.704875
LeftShoulder -18.018524 20.034906 15.361913
LeftArm -10.624384 -49.890275 -68.720507
LeftForeArm -11.665979 0.000000 104.939717
LeftHand -15.249795 -0.000000 44.241288
LeftHandThumb1 -26.253704 0.000000 33.147579
RightShoulder 4.639648 16.637474 -3.171235
RightArm 29.072311 -52.327164 78.040382
RightForeArm -22.636045 -0.000000 26.386548
RightHand -14.853706 0.000000 9.949054
RightHandThumb1 -24.326973 -0.000000 -32.862282
LeftUpLeg -22.611938 20.986682 6.000686
LeftLeg 20.648063 -0.000000 -0.000000
LeftFoot -41.945208 37.637005 -35.339513
LeftToeBase 9.802719 -0.000000 -0.000000
RightUpLeg -42.183918 -52.191975 -2.408056
RightLeg 80.704830 -0.000000 -0.000000
RightFoot -27.876341 -23.604994 23.793467
RightToeBase 10.810846 -0.000000 -0.000000
2449
root -0.472089 32.572126 -5.935306 26.251451 -30.642504 -25.856588
Spine 7.453686 14.144845 5.755399
Head -9.079000 27.065940 0.789490
LeftShoulder -18.019482 20.019230 15.397675
LeftArm -10.691209 -49.989803 -68.601352
LeftForeArm -11.764846 0.000000 104.793267
LeftHand -15.245310 -0.000000 44.400758
LeftHandThumb1 -26.253704 0.000000 33.147579
RightShoulder 4.629766 16.607636 -3.121958
RightArm 28.977954 -52.190275 78.120901
RightForeArm -22.716907 0.000000 26.336018
RightHand -14.785610 -0.000000 9.939774
RightHandThumb1 -24.326973 -0.000000 -32.862282
LeftUpLeg -22.619616 21.005626 6.010815
LeftLeg 20.710486 -0.000000 -0.000000
LeftFoot -42.023555 37.670240 -35.417769
LeftToeBase 9.800024 -0.000000 -0.000000
RightUpLeg -42.139497 -52.002505 -2.500651
RightLeg 80.307577 -0.000000 -0.000000
RightFoot -27.915146 -23.674891 23.948656
RightToeBase 11.143799 -0.000000 -0.000000
2450
root -0.472807 32.569852 -5.931758 26.296612 -30.752458 -25.910599
Spine 7.455155 14.203969 5.722081
Head -9.034220 27.160503 0.864643
LeftShoulder -18.023648 20.029910 15.421152
LeftArm -10.765291 -50.074835 -68.494438
LeftForeArm -11.901076 0.000000 104.667922
LeftHand -15.218637 -0.000000 44.554393
LeftHandThumb1 -26.253704 0.000000 33.147579
RightShoulder 4.613418 16.568493 -3.113602
RightArm 28.918702 -52.071095 78.180200
RightForeArm -22.670940 -0.000000 26.296566
RightHand -14.784229 -0.000000 9.740700
RightHandThumb1 -24.326973 -0.000000 -32.862282
LeftUpLeg -22.622486 21.045654 6.027141
LeftLeg 20.769281 -0.000000 -0.000000
LeftFoot -42.147582 37.675794 -35.541294
LeftToeBase 9.842811 -0.000000 -0.000000
RightUpLeg -42.074397 -51.788529 -2.597424
RightLeg 79.875958 -0.000000 -0.000000
RightFoot -27.948090 -23.791210 24.000682
RightToeBase 11.077639 -0.000000 -0.000000
2451
root -0.474691 32.569148 -5.929846 26.373838 -30.873909 -26.004763
Spine 7.443057 14.276141 5.710265
Head -8.995068 27.290392 0.921520
LeftShoulder -18.033457 20.047602 15.436979
LeftArm -10.858653 -50.194174 -68.380566
LeftForeArm -12.013240 -0.000000 104.549821
LeftHand -15.253064 -0.000000 44.610141
LeftHandThumb1 -26.253704 0.000000 33.147579
RightShoulder 4.608799 16.525413 -3.091867
RightArm 28.987682 -52.115204 78.039237
RightForeArm -22.486198 0.000000 26.292538
RightHand -14.795094 -0.000000 9.765633
RightHandThumb1 -24.326973 -0.000000 -32.862282
LeftUpLeg -22.637950 21.112976 6.063493
LeftLeg 20.807491 -0.000000 -0.000000
LeftFoot -41.984142 37.840008 -35.337722
LeftToeBase 10.087850 -0.000000 -0.000000
RightUpLeg -42.048882 -51.543565 -2.621707
RightLeg 79.467146 -0.000000 -0.000000
RightFoot -28.014516 -23.878124 24.195211
RightToeBase 11.346563 -0.000000 -0.000000
